<svg width="192" height="192" viewBox="0 0 192 192" xmlns="http://www.w3.org/2000/svg">
  <defs>
    <linearGradient id="iconGradient" x1="0%" y1="0%" x2="100%" y2="100%">
      <stop offset="0%" style="stop-color:#00D1FF;stop-opacity:1" />
      <stop offset="100%" style="stop-color:#0A84FF;stop-opacity:1" />
    </linearGradient>
  </defs>
  
  <!-- Background -->
  <rect width="192" height="192" fill="url(#iconGradient)" rx="42"/>
  
  <!-- Icon content -->
  <g transform="translate(96, 96)">
    <!-- Main S shape -->
    <path d="M -24 -36 Q -36 -48 -24 -48 L 24 -48 Q 36 -48 24 -36 Q 24 -24 12 -24 L -12 -24 Q -24 -24 -24 -12 Q -24 0 -12 0 L 24 0 Q 36 0 24 12 Q 24 24 12 24 L -24 24 Q -36 24 -24 36" 
          stroke="white" 
          stroke-width="8" 
          fill="none" 
          stroke-linecap="round"/>
    
    <!-- Plus symbol -->
    <g transform="translate(30, -30)">
      <circle cx="0" cy="0" r="16" fill="rgba(255, 255, 255, 0.3)"/>
      <path d="M -8 0 L 8 0 M 0 -8 L 0 8" 
            stroke="white" 
            stroke-width="4" 
            stroke-linecap="round"/>
    </g>
  </g>
</svg>